# xmcd
#
# Track frame offsets:
#	150
#	14907
#	27967
#	51007
#	64600
#	90745
#	107787
#	136275
#	152327
#	170177
#	184955
#	200387
#	220350
#
# Disc length: 3137 seconds
#
# Revision: 1
# Processed by: cddbd v1.5.1PL0 Copyright (c) Steve Scherf et al.
# Submitted via: audiograbber 1.83.01
#
DISCID=ba0c3f0d
DTITLE=Hal Newman and The Mystics Of Time - America's Party Band [CD3]
DYEAR=1999
DGENRE=R&B
TTITLE0=Midnight Hour
TTITLE1=Memphis In May
TTITLE2=Every Dog Got His Day
TTITLE3=Just Because You Want Me To
TTITLE4=Jimmy Reed Medley
TTITLE5=No Other Woman
TTITLE6=Ooh Poo Pah Doo
TTITLE7=Rhythm Of The Blues
TTITLE8=Groove Come Up
TTITLE9=King Of The Coast
TTITLE10=Snake Dancing
TTITLE11=Music Is The Message
TTITLE12=Mystics Of Time
EXTD=
EXTT0=
EXTT1=
EXTT2=
EXTT3=
EXTT4=
EXTT5=
EXTT6=
EXTT7=
EXTT8=
EXTT9=
EXTT10=
EXTT11=
EXTT12=
PLAYORDER=
